<svg xmlns="http://www.w3.org/2000/svg" width="148.446" height="177.688" viewBox="0 0 148.446 177.688">
  <defs>
    <style>
      .cls-1 {
        fill: #e03116;
      }
    </style>
  </defs>
  <path id="Path_5249" data-name="Path 5249" class="cls-1" d="M906.094,801.7c1.156-4.23.789-8.423-1.007-11.5a11.5,11.5,0,0,0-7.488-5.284c-2.6-.659-5.686-1.4-9.184-2.2a12.9,12.9,0,0,1-9.648-9.45c-5.567,5.074-11.772,7.959-17.218,7.962h0c-5.4,0-11.556-2.845-17.09-7.847-.9,3.935-4.032,8.4-14.3,10.945a1.6,1.6,0,0,1-.768-3.1c11.83-2.935,12.159-8.278,12.217-10.686a44.806,44.806,0,0,1-10.689-20.407,19.312,19.312,0,0,1-2.768-4.346,17.176,17.176,0,0,1-.939-2.538,14.363,14.363,0,0,1-.545-3.825c0-2.937,0-6.821,2.842-7.878.112-1.826.293-5.716.237-11.282-.108-10.927,8.424-17.4,16.928-18.977l2.171-.4a67.675,67.675,0,0,1,25.419,0l2.171.4c8.5,1.572,17.036,8.049,16.928,18.977-.055,5.566.125,9.456.237,11.282,2.842,1.057,2.842,4.941,2.842,7.878a14.348,14.348,0,0,1-.544,3.823,17.218,17.218,0,0,1-.939,2.54,19.31,19.31,0,0,1-2.769,4.346,44.8,44.8,0,0,1-10.609,20.32,9.721,9.721,0,0,0,7.551,9.149c3.522.805,6.637,1.551,9.257,2.216a14.765,14.765,0,0,1,9.459,6.77c2.224,3.815,2.708,8.9,1.328,13.951a1.6,1.6,0,1,1-3.077-.841Zm-16.945-52.625a1.6,1.6,0,0,1,.36-.721,16.225,16.225,0,0,0,2.544-3.9,14.021,14.021,0,0,0,.765-2.065,11.151,11.151,0,0,0,.428-2.968c0-4.913-.62-4.938-1.22-4.961a1.6,1.6,0,0,1-1.526-1.451c-.017-.188-.414-4.706-.334-12.78.09-9.075-7.126-14.479-14.318-15.808l-2.171-.4a64.5,64.5,0,0,0-24.259,0l-2.171.4c-7.191,1.33-14.408,6.733-14.318,15.808.08,8.074-.317,12.591-.334,12.78a1.6,1.6,0,0,1-1.526,1.451c-.6.023-1.22.048-1.22,4.961a11.167,11.167,0,0,0,.429,2.971,14,14,0,0,0,.764,2.062,16.219,16.219,0,0,0,2.544,3.9,1.6,1.6,0,0,1,.36.721c3.491,16.568,17.451,28.954,27.6,28.961C871.7,778.025,885.658,765.639,889.149,749.071Zm12.7-113.851,7.325,5.5a36.361,36.361,0,0,1,10.272-4.249l1.3-9.073a1.6,1.6,0,0,1,1.579-1.369h12.234a1.6,1.6,0,0,1,1.579,1.37l1.293,9.062a36.558,36.558,0,0,1,10.275,4.251l7.324-5.485a1.6,1.6,0,0,1,2.084.149l8.651,8.651a1.6,1.6,0,0,1,.149,2.084l-5.485,7.324a36.545,36.545,0,0,1,4.25,10.276L973.736,665a1.6,1.6,0,0,1,1.37,1.579v12.235a1.6,1.6,0,0,1-1.37,1.579l-9.073,1.3a36.352,36.352,0,0,1-4.249,10.272l5.495,7.325a1.6,1.6,0,0,1-.148,2.085l-8.652,8.652a1.6,1.6,0,0,1-2.085.148l-7.324-5.494a36.406,36.406,0,0,1-10.269,4.241l-1.3,9.078a1.6,1.6,0,0,1-1.579,1.369H922.319A1.6,1.6,0,0,1,920.74,718l-1.3-9.07a36.726,36.726,0,0,1-10.26-4.251l-7.332,5.5a1.6,1.6,0,0,1-2.085-.148l-8.651-8.651a1.6,1.6,0,0,1-.149-2.084l5.494-7.333a36.732,36.732,0,0,1-4.252-10.265l-9.067-1.3a1.6,1.6,0,0,1-1.369-1.579V666.576A1.6,1.6,0,0,1,883.136,665l9.077-1.3a36.435,36.435,0,0,1,4.241-10.269l-5.494-7.325a1.6,1.6,0,0,1,.148-2.085l8.652-8.652A1.6,1.6,0,0,1,901.845,635.221Zm6.287,8.7-7.095-5.323-6.7,6.7,5.321,7.094a1.6,1.6,0,0,1,.063,1.824,33.289,33.289,0,0,0-4.641,11.238,1.6,1.6,0,0,1-1.335,1.248l-8.793,1.258v9.468l8.78,1.256a1.6,1.6,0,0,1,1.281,1.056,1.663,1.663,0,0,1,.055.195,33.594,33.594,0,0,0,4.654,11.232,1.6,1.6,0,0,1-.062,1.823l-5.321,7.1,6.7,6.7,7.1-5.322a1.6,1.6,0,0,1,1.824-.063,33.587,33.587,0,0,0,11.233,4.655,1.594,1.594,0,0,1,1.243,1.332l1.263,8.783h9.469l1.257-8.794a1.6,1.6,0,0,1,1.248-1.335,33.276,33.276,0,0,0,11.237-4.641,1.594,1.594,0,0,1,1.824.063l7.094,5.321,6.7-6.7L957.2,693a1.6,1.6,0,0,1-.062-1.826,33.2,33.2,0,0,0,4.649-11.238,1.6,1.6,0,0,1,1.335-1.248l8.789-1.256V667.96l-8.776-1.253a1.6,1.6,0,0,1-1.334-1.245,33.4,33.4,0,0,0-4.653-11.245,1.6,1.6,0,0,1,.061-1.825l5.313-7.094-6.7-6.7-7.094,5.313a1.6,1.6,0,0,1-1.825.061,33.423,33.423,0,0,0-11.245-4.653,1.6,1.6,0,0,1-1.244-1.334l-1.253-8.776H923.7L922.445,638a1.6,1.6,0,0,1-1.248,1.335,33.221,33.221,0,0,0-11.239,4.648A1.6,1.6,0,0,1,908.133,643.925Zm4.011,28.768a16.292,16.292,0,1,1,16.292,16.292A16.311,16.311,0,0,1,912.143,672.693Zm3.19,0a13.1,13.1,0,1,0,13.1-13.1A13.117,13.117,0,0,0,915.334,672.693Zm14.7,53.979v27.5a10.281,10.281,0,1,1-3.19,0v-27.5a1.6,1.6,0,1,1,3.19,0Zm-1.6,30.566a7.091,7.091,0,1,0,7.091,7.091A7.1,7.1,0,0,0,928.436,757.239ZM828.245,671.654a10.281,10.281,0,0,1,20.438-1.6h25.665a1.6,1.6,0,0,1,0,3.19H848.682a10.281,10.281,0,0,1-20.438-1.6Zm3.19,0a7.091,7.091,0,1,0,7.091-7.091A7.1,7.1,0,0,0,831.435,671.654Z" transform="translate(-826.66 -626.024)"/>
</svg>
