<svg xmlns="http://www.w3.org/2000/svg" width="140.603" height="148.554" viewBox="0 0 140.603 148.554">
  <defs>
    <style>
      .cls-1 {
        fill: #e03116;
        stroke: #e03116;
      }
    </style>
  </defs>
  <g id="Group_2527" data-name="Group 2527" transform="translate(-90.118 -91.565)">
    <g id="Group_2479" data-name="Group 2479" transform="translate(173.796 126.675)">
      <g id="Group_2478" data-name="Group 2478">
        <g id="Group_2477" data-name="Group 2477">
          <g id="Group_2475" data-name="Group 2475">
            <path id="Path_5219" data-name="Path 5219" class="cls-1" d="M187.421,201.33H177a.785.785,0,0,1-.777-.674l-1.157-8.1a30.53,30.53,0,0,1-9.758-4.14.783.783,0,1,1,.853-1.314,29.046,29.046,0,0,0,9.769,4.042.785.785,0,0,1,.612.656l1.137,7.966h9.059l1.14-7.977a.784.784,0,0,1,.613-.656,28.891,28.891,0,0,0,9.766-4.039.777.777,0,0,1,.9.031l6.439,4.83L212,185.547l-4.83-6.439a.785.785,0,0,1-.031-.9,28.931,28.931,0,0,0,4.034-9.764.784.784,0,0,1,.655-.613l7.981-1.141v-9.059l-7.97-1.14a.786.786,0,0,1-.631-.528,29.442,29.442,0,0,0-4.055-9.826.786.786,0,0,1,.016-.918L212,138.777l-6.407-6.406-6.443,4.833a.786.786,0,0,1-.963-.018,29.37,29.37,0,0,0-9.692-4,.93.93,0,0,1-.618-.657l-1.139-7.97h-9.06l-1.14,7.982a.782.782,0,0,1-.613.655,28.926,28.926,0,0,0-9.764,4.033.783.783,0,1,1-.853-1.315,30.484,30.484,0,0,1,9.755-4.131l1.159-8.118A.784.784,0,0,1,177,123h10.418a.784.784,0,0,1,.777.672l1.159,8.11a30.53,30.53,0,0,1,9.289,3.847l6.555-4.914a.781.781,0,0,1,1.024.073l7.367,7.367a.784.784,0,0,1,.072,1.024l-4.913,6.551a30.777,30.777,0,0,1,3.849,9.293l8.108,1.16a.783.783,0,0,1,.672.775v10.417a.784.784,0,0,1-.674.777l-8.118,1.159a30.454,30.454,0,0,1-3.836,9.293l4.912,6.549a.784.784,0,0,1-.072,1.024l-7.368,7.368a.783.783,0,0,1-1.024.072L198.65,188.7a30.429,30.429,0,0,1-9.293,3.844l-1.159,8.113A.784.784,0,0,1,187.421,201.33Z" transform="translate(-164.955 -122.996)"/>
          </g>
          <g id="Group_2476" data-name="Group 2476" transform="translate(5.146 27.055)">
            <path id="Path_5220" data-name="Path 5220" class="cls-1" d="M181.665,171.4a12.112,12.112,0,1,1,12.111-12.111A12.124,12.124,0,0,1,181.665,171.4Zm0-22.656a10.545,10.545,0,1,0,10.545,10.545A10.557,10.557,0,0,0,181.665,148.743Z" transform="translate(-169.554 -147.175)"/>
          </g>
        </g>
      </g>
    </g>
    <g id="Group_2500" data-name="Group 2500" transform="translate(95.771 92.065)">
      <g id="Group_2489" data-name="Group 2489" transform="translate(0 109.656)">
        <g id="Group_2482" data-name="Group 2482" transform="translate(23.646 5.667)">
          <g id="Group_2480" data-name="Group 2480">
            <path id="Path_5221" data-name="Path 5221" class="cls-1" d="M194.9,213.918H117.14a.783.783,0,1,1,0-1.567H194.9a6.034,6.034,0,0,0,6.027-6.027V195.913a.783.783,0,0,1,1.566,0v10.412A7.6,7.6,0,0,1,194.9,213.918Z" transform="translate(-116.356 -195.13)"/>
          </g>
          <g id="Group_2481" data-name="Group 2481" transform="translate(51.176 10.449)">
            <path id="Path_5222" data-name="Path 5222" class="cls-1" d="M186.806,206.034H162.875a.783.783,0,1,1,0-1.566h23.931a.783.783,0,1,1,0,1.566Z" transform="translate(-162.092 -204.468)"/>
          </g>
        </g>
        <g id="Group_2488" data-name="Group 2488">
          <g id="Group_2483" data-name="Group 2483" transform="translate(112.736 26.73)">
            <path id="Path_5223" data-name="Path 5223" class="cls-1" d="M201.56,225.122a5.584,5.584,0,1,1,5.585-5.583A5.589,5.589,0,0,1,201.56,225.122Zm0-9.6a4.018,4.018,0,1,0,4.018,4.018A4.022,4.022,0,0,0,201.56,215.521Z" transform="translate(-195.976 -213.954)"/>
          </g>
          <g id="Group_2484" data-name="Group 2484" transform="translate(0 26.73)">
            <path id="Path_5224" data-name="Path 5224" class="cls-1" d="M100.808,225.122a5.584,5.584,0,1,1,5.585-5.583A5.59,5.59,0,0,1,100.808,225.122Zm0-9.6a4.018,4.018,0,1,0,4.017,4.018A4.023,4.023,0,0,0,100.808,215.521Z" transform="translate(-95.223 -213.954)"/>
          </g>
          <g id="Group_2485" data-name="Group 2485" transform="translate(49.171 31.532)">
            <path id="Path_5225" data-name="Path 5225" class="cls-1" d="M196.473,219.813H139.951a.784.784,0,1,1,0-1.568h56.522a.784.784,0,0,1,0,1.568Z" transform="translate(-139.167 -218.245)"/>
          </g>
          <g id="Group_2486" data-name="Group 2486" transform="translate(117.536)">
            <path id="Path_5226" data-name="Path 5226" class="cls-1" d="M201.049,211.8a.783.783,0,0,1-.783-.783V190.848a.783.783,0,0,1,1.567,0v20.165A.783.783,0,0,1,201.049,211.8Z" transform="translate(-200.266 -190.065)"/>
          </g>
          <g id="Group_2487" data-name="Group 2487" transform="translate(10.032 31.532)">
            <path id="Path_5227" data-name="Path 5227" class="cls-1" d="M132.247,219.813H104.972a.784.784,0,0,1,0-1.568h27.275a.784.784,0,0,1,0,1.568Z" transform="translate(-104.189 -218.245)"/>
          </g>
        </g>
      </g>
      <g id="Group_2499" data-name="Group 2499">
        <g id="Group_2492" data-name="Group 2492" transform="translate(23.646 13.443)">
          <g id="Group_2490" data-name="Group 2490">
            <path id="Path_5228" data-name="Path 5228" class="cls-1" d="M201.705,122.867a.783.783,0,0,1-.783-.783V111.672a6.033,6.033,0,0,0-6.027-6.025H117.14a.784.784,0,1,1,0-1.568H194.9a7.6,7.6,0,0,1,7.593,7.593v10.412A.783.783,0,0,1,201.705,122.867Z" transform="translate(-116.356 -104.079)"/>
          </g>
          <g id="Group_2491" data-name="Group 2491" transform="translate(51.176 6.773)">
            <path id="Path_5229" data-name="Path 5229" class="cls-1" d="M186.806,111.7H162.875a.783.783,0,1,1,0-1.567h23.931a.783.783,0,1,1,0,1.567Z" transform="translate(-162.092 -110.132)"/>
          </g>
        </g>
        <g id="Group_2498" data-name="Group 2498">
          <g id="Group_2493" data-name="Group 2493" transform="translate(112.736)">
            <path id="Path_5230" data-name="Path 5230" class="cls-1" d="M201.56,103.232a5.583,5.583,0,1,1,5.585-5.583A5.589,5.589,0,0,1,201.56,103.232Zm0-9.6a4.017,4.017,0,1,0,4.018,4.017A4.021,4.021,0,0,0,201.56,93.632Z" transform="translate(-195.976 -92.065)"/>
          </g>
          <g id="Group_2494" data-name="Group 2494">
            <path id="Path_5231" data-name="Path 5231" class="cls-1" d="M100.808,103.232a5.583,5.583,0,1,1,5.585-5.583A5.59,5.59,0,0,1,100.808,103.232Zm0-9.6a4.017,4.017,0,1,0,4.017,4.017A4.022,4.022,0,0,0,100.808,93.632Z" transform="translate(-95.223 -92.065)"/>
          </g>
          <g id="Group_2495" data-name="Group 2495" transform="translate(49.171 4.8)">
            <path id="Path_5232" data-name="Path 5232" class="cls-1" d="M196.473,97.922H139.951a.783.783,0,1,1,0-1.567h56.522a.783.783,0,1,1,0,1.567Z" transform="translate(-139.167 -96.355)"/>
          </g>
          <g id="Group_2496" data-name="Group 2496" transform="translate(117.536 16.166)">
            <path id="Path_5233" data-name="Path 5233" class="cls-1" d="M201.049,128.245a.783.783,0,0,1-.783-.783V107.3a.783.783,0,0,1,1.567,0v20.165A.783.783,0,0,1,201.049,128.245Z" transform="translate(-200.266 -106.513)"/>
          </g>
          <g id="Group_2497" data-name="Group 2497" transform="translate(10.032 4.8)">
            <path id="Path_5234" data-name="Path 5234" class="cls-1" d="M132.247,97.922H104.972a.783.783,0,0,1,0-1.567h27.275a.783.783,0,1,1,0,1.567Z" transform="translate(-104.189 -96.355)"/>
          </g>
        </g>
      </g>
    </g>
    <g id="Group_2526" data-name="Group 2526" transform="translate(90.618 115.614)">
      <g id="Group_2501" data-name="Group 2501">
        <path id="Path_5235" data-name="Path 5235" class="cls-1" d="M162.709,213.568H98.85a8.242,8.242,0,0,1-8.232-8.233V121.343a8.241,8.241,0,0,1,8.232-8.232h63.859a8.24,8.24,0,0,1,8.231,8.232v83.992A8.241,8.241,0,0,1,162.709,213.568ZM98.85,114.678a6.672,6.672,0,0,0-6.664,6.666v83.992A6.672,6.672,0,0,0,98.85,212h63.859a6.672,6.672,0,0,0,6.664-6.666V121.343a6.672,6.672,0,0,0-6.664-6.666Z" transform="translate(-90.618 -113.111)"/>
      </g>
      <g id="Group_2509" data-name="Group 2509" transform="translate(11.542 72.114)">
        <g id="Group_2504" data-name="Group 2504" transform="translate(21.809 5.155)">
          <g id="Group_2502" data-name="Group 2502">
            <path id="Path_5236" data-name="Path 5236" class="cls-1" d="M155.907,183.733h-34.7a.783.783,0,1,1,0-1.566h34.7a.783.783,0,1,1,0,1.566Z" transform="translate(-120.424 -182.167)"/>
          </g>
          <g id="Group_2503" data-name="Group 2503" transform="translate(0 6.56)">
            <path id="Path_5237" data-name="Path 5237" class="cls-1" d="M149.122,189.6H121.207a.784.784,0,0,1,0-1.568h27.915a.784.784,0,1,1,0,1.568Z" transform="translate(-120.424 -188.03)"/>
          </g>
        </g>
        <g id="Group_2508" data-name="Group 2508">
          <g id="Group_2507" data-name="Group 2507">
            <g id="Group_2505" data-name="Group 2505">
              <path id="Path_5238" data-name="Path 5238" class="cls-1" d="M110.161,196a9.221,9.221,0,1,1,9.212-9.212A9.218,9.218,0,0,1,110.161,196Zm0-16.872a7.669,7.669,0,0,0-7.661,7.66,7.655,7.655,0,1,0,7.661-7.66Z" transform="translate(-100.933 -177.56)"/>
            </g>
            <g id="Group_2506" data-name="Group 2506" transform="translate(3.75 6.73)">
              <path id="Path_5239" data-name="Path 5239" class="cls-1" d="M108.913,190.659a.78.78,0,0,1-.554-.229l-3.846-3.845a.784.784,0,1,1,1.108-1.109l3.293,3.293,4.974-4.966a.783.783,0,0,1,1.107,1.109l-5.528,5.517A.78.78,0,0,1,108.913,190.659Z" transform="translate(-104.284 -183.574)"/>
            </g>
          </g>
        </g>
      </g>
      <g id="Group_2517" data-name="Group 2517" transform="translate(11.542 43.517)">
        <g id="Group_2512" data-name="Group 2512" transform="translate(21.809 5.155)">
          <g id="Group_2510" data-name="Group 2510">
            <path id="Path_5240" data-name="Path 5240" class="cls-1" d="M155.907,158.177h-34.7a.784.784,0,0,1,0-1.568h34.7a.784.784,0,0,1,0,1.568Z" transform="translate(-120.424 -156.609)"/>
          </g>
          <g id="Group_2511" data-name="Group 2511" transform="translate(0 6.561)">
            <path id="Path_5241" data-name="Path 5241" class="cls-1" d="M149.122,164.04H121.207a.783.783,0,1,1,0-1.566h27.915a.783.783,0,1,1,0,1.566Z" transform="translate(-120.424 -162.473)"/>
          </g>
        </g>
        <g id="Group_2516" data-name="Group 2516">
          <g id="Group_2515" data-name="Group 2515">
            <g id="Group_2513" data-name="Group 2513">
              <path id="Path_5242" data-name="Path 5242" class="cls-1" d="M110.161,170.44a9.22,9.22,0,1,1,9.212-9.212,9.216,9.216,0,0,1-9.212,9.212Zm0-16.871a7.669,7.669,0,0,0-7.661,7.659,7.655,7.655,0,1,0,7.661-7.659Z" transform="translate(-100.933 -152.002)"/>
            </g>
            <g id="Group_2514" data-name="Group 2514" transform="translate(3.75 6.731)">
              <path id="Path_5243" data-name="Path 5243" class="cls-1" d="M108.913,165.1a.785.785,0,0,1-.554-.229l-3.846-3.847a.783.783,0,1,1,1.108-1.108l3.293,3.293,4.974-4.966a.783.783,0,0,1,1.107,1.109l-5.528,5.519A.785.785,0,0,1,108.913,165.1Z" transform="translate(-104.284 -158.018)"/>
            </g>
          </g>
        </g>
      </g>
      <g id="Group_2525" data-name="Group 2525" transform="translate(11.542 14.918)">
        <g id="Group_2520" data-name="Group 2520" transform="translate(21.809 5.156)">
          <g id="Group_2518" data-name="Group 2518">
            <path id="Path_5244" data-name="Path 5244" class="cls-1" d="M155.907,132.619h-34.7a.784.784,0,0,1,0-1.568h34.7a.784.784,0,0,1,0,1.568Z" transform="translate(-120.424 -131.051)"/>
          </g>
          <g id="Group_2519" data-name="Group 2519" transform="translate(0 6.561)">
            <path id="Path_5245" data-name="Path 5245" class="cls-1" d="M149.122,138.482H121.207a.783.783,0,0,1,0-1.567h27.915a.783.783,0,1,1,0,1.567Z" transform="translate(-120.424 -136.915)"/>
          </g>
        </g>
        <g id="Group_2524" data-name="Group 2524">
          <g id="Group_2523" data-name="Group 2523">
            <g id="Group_2521" data-name="Group 2521">
              <path id="Path_5246" data-name="Path 5246" class="cls-1" d="M110.161,144.883a9.221,9.221,0,1,1,9.212-9.212,9.216,9.216,0,0,1-9.212,9.212Zm0-16.872a7.669,7.669,0,0,0-7.661,7.66,7.655,7.655,0,1,0,7.661-7.66Z" transform="translate(-100.933 -126.443)"/>
            </g>
            <g id="Group_2522" data-name="Group 2522" transform="translate(3.75 6.732)">
              <path id="Path_5247" data-name="Path 5247" class="cls-1" d="M108.913,139.544a.781.781,0,0,1-.554-.23l-3.846-3.846a.783.783,0,1,1,1.108-1.108l3.293,3.293,4.974-4.966a.783.783,0,0,1,1.107,1.109l-5.528,5.519A.785.785,0,0,1,108.913,139.544Z" transform="translate(-104.284 -132.459)"/>
            </g>
          </g>
        </g>
      </g>
    </g>
  </g>
</svg>
