<svg xmlns="http://www.w3.org/2000/svg" width="154.713" height="154.712" viewBox="0 0 154.713 154.712">
  <defs>
    <style>
      .cls-1 {
        fill: #e03116;
      }
    </style>
  </defs>
  <g id="Group_2528" data-name="Group 2528" transform="translate(-499.997 -510)">
    <path id="Path_5248" data-name="Path 5248" class="cls-1" d="M563.176,603.364a21.381,21.381,0,0,0,30.186-30.185l30-29.995a11.1,11.1,0,1,0-1.832-1.832l-30,29.995a21.381,21.381,0,0,0-30.186,30.185l-30.028,30.029a11.1,11.1,0,1,0,1.831,1.832Zm61.038-74.909a8.513,8.513,0,1,1,0,12.039A8.46,8.46,0,0,1,624.214,528.456Zm-65.679,58.9a18.818,18.818,0,1,1,5.512,13.306A18.691,18.691,0,0,1,558.535,587.356ZM530.459,646.29a8.513,8.513,0,1,1,0-12.039A8.459,8.459,0,0,1,530.459,646.29Zm46.893-48.561a10.371,10.371,0,1,0-7.332-3.039A10.3,10.3,0,0,0,577.353,597.728Zm-5.5-15.873a7.781,7.781,0,1,1,0,11A7.729,7.729,0,0,1,571.852,581.855Zm-11.589-38.83-3.255,4.348,6.881,6.883L568.238,551a17.24,17.24,0,0,0,3.486,1.458l.756,5.383,9.748-.029.752-5.366a16.75,16.75,0,0,0,3.485-1.427l4.349,3.256,6.883-6.884-3.256-4.347a16.786,16.786,0,0,0,1.426-3.488l5.393-.778,0-9.715-5.406-.78a18.014,18.014,0,0,0-1.433-3.462l3.277-4.37-6.883-6.885-4.368,3.276a17.342,17.342,0,0,0-3.463-1.436l-.758-5.378L572.484,510l-.778,5.407a17.515,17.515,0,0,0-3.468,1.436l-4.347-3.256-6.883,6.883,3.256,4.348a17.49,17.49,0,0,0-1.434,3.464l-5.381.754,0,9.768,5.373.757A16.849,16.849,0,0,0,560.263,543.025Zm-4.225-11.736,4.87-.683.207-.854a14.826,14.826,0,0,1,1.8-4.339l.467-.753-2.955-3.947,3.709-3.709,3.945,2.956.751-.467a14.881,14.881,0,0,1,4.341-1.8l.85-.207.7-4.89,5.245.016.686,4.874.854.207a14.724,14.724,0,0,1,4.336,1.8l.753.47,3.969-2.976,3.706,3.707-2.975,3.967.465.751a15.359,15.359,0,0,1,1.806,4.35l.213.841,4.882.7,0,5.228-4.908.707-.2.867a14.173,14.173,0,0,1-1.776,4.342l-.467.751,2.955,3.946-3.708,3.709-3.946-2.954-.753.467a14.179,14.179,0,0,1-4.34,1.776l-.87.2-.686,4.885-5.243.016-.685-4.872-.86-.205a14.685,14.685,0,0,1-4.352-1.82l-.751-.465-3.948,2.955-3.709-3.709,2.955-3.947-.466-.751a14.244,14.244,0,0,1-1.8-4.322l-.2-.869-4.884-.686Zm21.32,10.757a8.139,8.139,0,1,0-5.744-2.384A8.067,8.067,0,0,0,577.359,542.045ZM573.434,530a5.545,5.545,0,0,1,7.836.011,5.532,5.532,0,1,1-7.836-.011Zm3.906,102.666a8.129,8.129,0,1,0,5.761,2.385A8.059,8.059,0,0,0,577.34,632.661Zm3.93,12.04a5.538,5.538,0,1,1,0-7.823A5.5,5.5,0,0,1,581.27,644.7Zm19.991.95,0-9.717-5.406-.779a18.006,18.006,0,0,0-1.433-3.463l3.277-4.369-6.883-6.885-4.368,3.275a17.227,17.227,0,0,0-3.463-1.434l-.758-5.38-9.741-.028-.778,5.408a17.336,17.336,0,0,0-3.468,1.435l-4.347-3.256-6.883,6.884,3.256,4.347a17.44,17.44,0,0,0-1.434,3.463l-5.381.755,0,9.767,5.373.757a16.84,16.84,0,0,0,1.444,3.466l-3.255,4.347,6.881,6.883,4.349-3.255a17.235,17.235,0,0,0,3.486,1.458l.756,5.382,9.748-.028.752-5.367a16.752,16.752,0,0,0,3.485-1.426l4.349,3.256,6.883-6.883-3.256-4.349a16.747,16.747,0,0,0,1.426-3.487Zm-6.983,8.37-3.708,3.709-3.948-2.956-.751.468a14.213,14.213,0,0,1-4.34,1.776l-.87.2-.686,4.885-5.243.015-.685-4.872-.86-.205a14.653,14.653,0,0,1-4.352-1.82l-.751-.465-3.948,2.956L560.426,654l2.955-3.946-.466-.751a14.243,14.243,0,0,1-1.8-4.322l-.2-.869-4.884-.688,0-5.263,4.87-.683.207-.855a14.827,14.827,0,0,1,1.8-4.339l.467-.751-2.955-3.946,3.709-3.709,3.945,2.955.751-.467a14.885,14.885,0,0,1,4.34-1.8l.851-.207.7-4.89,5.245.015.686,4.875.854.207a14.719,14.719,0,0,1,4.336,1.8l.753.471,3.969-2.977,3.706,3.707-2.975,3.966.465.751a15.366,15.366,0,0,1,1.806,4.351l.213.842,4.882.7,0,5.229-4.906.708-.2.865a14.187,14.187,0,0,1-1.776,4.341l-.467.751Zm36.533-74.792a8.112,8.112,0,1,0,5.736,2.378A8.092,8.092,0,0,0,630.81,579.228Zm3.892,12.045a5.543,5.543,0,1,1,1.628-3.919A5.5,5.5,0,0,1,634.7,591.273Zm19.978.955.029-9.739-5.407-.78a17.547,17.547,0,0,0-1.436-3.467l3.256-4.347-6.883-6.884-4.347,3.256a17.435,17.435,0,0,0-3.464-1.434l-.755-5.382h-9.767l-.756,5.373a16.879,16.879,0,0,0-3.466,1.445l-4.346-3.256-6.885,6.884,3.257,4.347a17.277,17.277,0,0,0-1.458,3.485l-5.383.758.029,9.748,5.367.753a16.757,16.757,0,0,0,1.424,3.485l-3.256,4.347,6.883,6.883,4.349-3.255a16.738,16.738,0,0,0,3.489,1.427l.778,5.392h9.715l.779-5.407a17.983,17.983,0,0,0,3.463-1.432l4.37,3.277,6.885-6.884-3.275-4.366a17.352,17.352,0,0,0,1.434-3.463Zm-6.958,8.345-3.707,3.707-3.967-2.974-.751.466a15.354,15.354,0,0,1-4.35,1.8l-.842.213-.7,4.884h-5.228l-.708-4.905-.866-.2a14.164,14.164,0,0,1-4.34-1.776l-.753-.467-3.946,2.955-3.709-3.708,2.955-3.946-.467-.751a14.184,14.184,0,0,1-1.776-4.343l-.2-.869-4.886-.686-.014-5.244,4.872-.686.2-.86a14.651,14.651,0,0,1,1.82-4.351l.467-.751-2.956-3.947,3.707-3.709,3.948,2.956.751-.465a14.134,14.134,0,0,1,4.321-1.8l.87-.2.687-4.885h5.264l.682,4.87.854.207a14.883,14.883,0,0,1,4.341,1.8l.751.467,3.945-2.956,3.709,3.709-2.955,3.946.467.753a14.833,14.833,0,0,1,1.8,4.339l.207.85,4.89.706-.014,5.244-4.875.687-.207.854a14.755,14.755,0,0,1-1.8,4.336l-.469.753Zm-123.8-5.088a8.123,8.123,0,1,0-5.742-2.38A8.073,8.073,0,0,0,523.92,595.485Zm-3.911-12.035a5.534,5.534,0,1,1,0,7.823A5.523,5.523,0,0,1,520.009,583.45Zm-1.728,22.421.778,5.392h9.716l.779-5.407a18,18,0,0,0,3.463-1.432l4.369,3.277,6.885-6.884L541,596.449a17.357,17.357,0,0,0,1.434-3.463l5.378-.758.029-9.739-5.407-.78A17.427,17.427,0,0,0,541,578.242l3.257-4.347-6.886-6.884-4.347,3.256a17.475,17.475,0,0,0-3.463-1.434l-.754-5.382h-9.768l-.756,5.373a16.864,16.864,0,0,0-3.465,1.445l-4.348-3.256-6.883,6.884,3.256,4.347a17.313,17.313,0,0,0-1.458,3.485l-5.383.758.028,9.748,5.367.753a16.784,16.784,0,0,0,1.426,3.485l-3.256,4.347,6.883,6.883,4.348-3.255A16.716,16.716,0,0,0,518.281,605.871Zm-7.592-1.59-3.709-3.708,2.955-3.946-.467-.751a14.212,14.212,0,0,1-1.777-4.343l-.2-.869-4.886-.686-.015-5.244,4.872-.686.2-.86a14.687,14.687,0,0,1,1.82-4.352l.465-.751L507,574.138l3.709-3.709,3.947,2.956.751-.465a14.149,14.149,0,0,1,4.321-1.8l.869-.2.688-4.885h5.264l.683,4.868.854.209a14.881,14.881,0,0,1,4.339,1.8l.752.467,3.946-2.956,3.709,3.709-2.956,3.947.468.751a14.885,14.885,0,0,1,1.8,4.339l.207.851,4.889.7-.014,5.244-4.875.687-.207.854a14.735,14.735,0,0,1-1.8,4.334l-.471.754,2.976,3.968-3.707,3.707-3.966-2.974-.751.466a15.364,15.364,0,0,1-4.351,1.8l-.841.213-.7,4.884H521.3l-.708-4.905-.866-.2a14.178,14.178,0,0,1-4.341-1.776l-.751-.467Zm22.178-52.591a8.819,8.819,0,1,0-8.82-8.819A8.83,8.83,0,0,0,532.867,551.69Zm0-15.048a6.229,6.229,0,1,1-6.229,6.229A6.236,6.236,0,0,1,532.867,536.642Zm88.971,86.381a8.82,8.82,0,1,0,8.82,8.82A8.83,8.83,0,0,0,621.839,623.022Zm0,15.049a6.229,6.229,0,1,1,6.229-6.229A6.236,6.236,0,0,1,621.839,638.072Z" transform="translate(0 0)"/>
  </g>
</svg>
